# AST/ASF file generated using VICON BodyLanguage
# -----------------------------------------------
:version 1.10
:name VICON
:units
  mass 1.0
  length 0.45
  angle deg
:documentation
   .ast/.asf automatically generated from VICON data using
   VICON BodyBuilder and BodyLanguage model FoxedUp or BRILLIANT.MOD
:root
   order TX TY TZ RX RY RZ
   axis XYZ
   position 0 0 0  
   orientation 0 0 0 
:bonedata
  begin
     id 1 
     name lhipjoint
     direction 0.588788 -0.725889 0.355548 
     length 2.37778 
     axis 0 0 0  XYZ
  end
  begin
     id 2 
     name lfemur
     direction 0.34202 -0.939693 0  
     length 6.86393  
     axis 0 0 20  XYZ
    dof rx ry rz
    limits (-160.0 20.0)
           (-70.0 70.0)
           (-60.0 70.0)
  end
  begin
     id 3 
     name ltibia
     direction 0.34202 -0.939693 0   
     length 7.32851   
     axis 0 0 20   XYZ
    dof rx
    limits (-10.0 170.0)
  end
  begin
     id 4 
     name lfoot
     direction 0.0626533 -0.172138 0.983078   
     length 1.98929   
     axis -90 7.62852e-016 20   XYZ
    dof rx rz
    limits (-45.0 90.0)
           (-70.0 20.0)
  end
  begin
     id 5 
     name ltoes
     direction 1.53647e-011 -4.21734e-011 1   
     length 1.00479   
     axis -90 7.62852e-016 20   XYZ
    dof rx
    limits (-90.0 20.0)
  end
  begin
     id 6 
     name rhipjoint
     direction -0.59141 -0.724168 0.354705   
     length 2.38343  
     axis 0 0 0  XYZ 
  end
  begin
     id 7 
     name rfemur
     direction -0.34202 -0.939693 0   
     length 6.95589   
     axis 0 0 -20   XYZ
    dof rx ry rz
    limits (-160.0 20.0)
           (-70.0 70.0)
           (-70.0 60.0)
  end
  begin
     id 8 
     name rtibia
     direction -0.34202 -0.939693 0   
     length 7.32327   
     axis 0 0 -20   XYZ
    dof rx
    limits (-10.0 170.0)
 end
 begin
     id 9 
     name rfoot
     direction -0.0660461 -0.18146 0.981178   
     length 1.85272  
     axis -90 -7.62852e-016 -20   XYZ
    dof rx rz
    limits (-45.0 90.0)
           (-20.0 70.0)
  end
  begin
     id 10 
     name rtoes
     direction -1.53586e-011 -4.21988e-011 1   
     length 0.93746   
     axis -90 -7.62852e-016 -20   XYZ
    dof rx
    limits (-90.0 20.0)
  end
  begin
     id 11 
     name lowerback
     direction -0.0107982 0.991059 0.13299   
     length 1.98691   
     axis 0 0 0   XYZ
    dof rx ry rz
    limits (-20.0 45.0)
           (-30.0 30.0)
           (-30.0 30.0)
  end
  begin
     id 12 
     name upperback
     direction 0.0076296 0.999916 0.0104576   
     length 1.99501   
     axis 0 0 0   XYZ
    dof rx ry rz
    limits (-20.0 45.0)
           (-30.0 30.0)
           (-30.0 30.0)
  end
  begin
     id 13 
     name thorax
     direction 0.01176 0.998615 -0.0512909   
     length 2.03144   
     axis 0 0 0   XYZ
    dof rx ry rz
    limits (-20.0 45.0)
           (-30.0 30.0)
           (-30.0 30.0)
  end
  begin
     id 14 
     name lowerneck
     direction -0.0171909 0.999644 0.0204011   
     length 1.71818   
     axis 0 0 0   XYZ
    dof rx ry rz
    limits (-20.0 45.0)
           (-30.0 30.0)
           (-30.0 30.0)
  end
  begin
     id 15 
     name upperneck
     direction 0.0250902 0.997482 -0.0663316   
     length 1.66199   
     axis 0 0 0   XYZ
    dof rx ry rz
    limits (-20.0 45.0)
           (-30.0 30.0)
           (-30.0 30.0)
  end
  begin
     id 16
     name head
     direction 0.00881535 0.99956 -0.0283365  
     length 1.81545  
     axis 0 0 0   XYZ
    dof rx ry rz
    limits (-20.0 45.0)
           (-30.0 30.0)
           (-30.0 30.0)
  end
  begin
     id 17 
     name lclavicle
     direction 0.840411 0.486876 -0.238035  
     length 3.30409  
     axis 0 0 0   XYZ
    dof ry rz
    limits (-20.0 10.0)
           (0.0 20.0)
  end
  begin
     id 18 
     name lhumerus
     direction 1 -4.48977e-011 -5.16239e-027   
     length 4.62672   
     axis 180 -30 -90   XYZ
    dof rx ry rz
    limits (-60.0 90.0)
           (-90.0 90.0)
           (-90.0 90.0)
  end
  begin
     id 19
     name lradius
     direction 1 -4.48977e-011 -8.71171e-027   
     length 3.11018   
     axis 180 -30 -90   XYZ
    dof rx
    limits (-10.0 170.0)
  end
  begin
     id 20
     name lwrist
     direction 1 -4.48912e-011 -1.03764e-026   
     length 1.55509   
     axis 9.09556e-015 90 90   XYZ
    dof ry
    limits (-180.0 0.0)
 end
  begin
     id 21 
     name lhand
     direction 1 -4.49072e-011 -2.07528e-026   
     length 0.743834   
     axis 1.3242e-014 90 90   XYZ
    dof rx rz
    limits (-90.0 90.0)
           (-45.0 45.0)
  end
  begin
     id 22 
     name lfingers
     direction 1 -4.48909e-011 -4.15056e-026   
     length 0.599698   
     axis 2.64841e-014 90 90   XYZ
    dof rx
    limits (0.0 90.0)
  end
  begin
     id 23
     name lthumb
     direction 0.707107 -6.35013e-011 0.707107   
     length 0.86105   
     axis -90 45 2.85299e-015   XYZ
    dof rx rz
    limits (-45.0 45.0)
           (-45.0 45.0)
  end
  begin
     id 24 
     name rclavicle
     direction -0.835208 0.500237 -0.228452   
     length 3.2716  
     axis 0 0 0   XYZ 
    dof ry rz
    limits (-10.0 20.0)
           (-20.0 0.0)
  end
  begin
     id 25 
     name rhumerus
     direction -1 -4.48978e-011 -5.1953e-028  
     length 4.55919   
     axis 180 30 90   XYZ
    dof rx ry rz
    limits (-90.0 60.0)
           (-90.0 90.0)
           (-90.0 90.0)
  end
  begin
     id 26 
     name rradius
     direction -1 -4.48961e-011 -5.99546e-027   
     length 3.22748   
     axis 180 30 90   XYZ
    dof rx
    limits (-10.0 170.0)
  end
  begin
     id 27 
     name rwrist
     direction -1 -4.48986e-011 -1.03764e-026   
     length 1.61374   
     axis 9.09556e-015 -90 -90   XYZ
    dof ry
    limits (-180.0 0.0)
  end
  begin
     id 28
     name rhand
     direction -1 -4.4899e-011 -2.07528e-026   
     length 0.700882   
     axis 1.3242e-014 -90 -90   XYZ
    dof rx rz
    limits (-90.0 90.0)
           (-45.0 45.0)
  end
  begin
     id 29
     name rfingers
     direction -1 -4.48991e-011 -4.15056e-026   
     length 0.565069   
     axis 2.64841e-014 -90 -90   XYZ
    dof rx
    limits (0.0 90.0)
  end
  begin
     id 30
     name rthumb
     direction -0.707107 -6.34804e-011 0.707107   
     length 0.811329   
     axis -90 -45 -2.85299e-015   XYZ
    dof rx rz
    limits (-45.0 45.0)
           (-45.0 45.0)
  end
:hierarchy
  begin
    root lhipjoint rhipjoint lowerback
    lhipjoint lfemur
    lfemur ltibia
    ltibia lfoot
    lfoot ltoes
    rhipjoint rfemur
    rfemur rtibia
    rtibia rfoot
    rfoot rtoes
    lowerback upperback
    upperback thorax
    thorax lowerneck lclavicle rclavicle
    lowerneck upperneck
    upperneck head
    lclavicle lhumerus
    lhumerus lradius
    lradius lwrist
    lwrist lhand lthumb
    lhand lfingers
    rclavicle rhumerus
    rhumerus rradius
    rradius rwrist
    rwrist rhand rthumb
    rhand rfingers
  end

#!OML:ASF F:\VICON\USERDATA\INSTALL\SteveWalk\SteveWalk.ASF
:FULLY-SPECIFIED
:DEGREES
300
root 1.08059 16.2789 20.7689 16.536 -4.94418 2.5261
lowerback -16.1093 -0.280199 -2.90583
upperback -4.45399 0.15114 -1.20347
thorax 4.27952 0.0560433 0.405547
lowerneck -4.77331 -0.740876 -0.864291
upperneck 10.9749 -1.17186 2.21128
head 4.50255 -0.506271 0.837963
rclavicle 5.85017e-015 3.02153e-014
rhumerus -40.9598 -19.6237 -77.3344
rradius 20.1551
rwrist 2.77204
rhand -13.172 -32.234
rfingers 7.12502
rthumb 12.9274 -61.8136
lclavicle 5.85017e-015 3.02153e-014
lhumerus -43.527 32.6658 61.6841
lradius 14.1088
lwrist -39.6618
lhand -14.4555 -14.9538
lfingers 7.12502
lthumb 11.6898 14.7001
rfemur -40.5318 -5.6574 19.0726
rtibia 75.9893
rfoot -4.49733 4.19807
rtoes -12.1798
lfemur -31.6888 0.166126 -25.9176
ltibia 35.6664
lfoot -19.6533 0.590873
ltoes -10.92
301
root 1.07761 16.2762 20.9703 16.4312 -4.71227 2.46005
lowerback -16.077 -0.357479 -2.80889
upperback -4.40334 0.0272641 -1.07169
thorax 4.31946 -0.00515129 0.465582
lowerneck -4.73552 -0.76477 -0.93881
upperneck 11.1295 -1.1984 2.19203
head 4.55235 -0.523053 0.844149
rclavicle 8.47009e-015 2.78299e-015
rhumerus -42.3348 -23.0597 -73.9936
rradius 17.8754
rwrist 7.59415
rhand -13.013 -32.1919
rfingers 7.12502
rthumb 13.0807 -61.7617
lclavicle 8.47009e-015 2.78299e-015
lhumerus -40.5097 29.6438 65.8076
lradius 14.8775
lwrist -35.2469
lhand -16.166 -16.4835
lfingers 7.12502
lthumb 10.04 13.257
rfemur -41.6658 -5.7046 19.4322
rtibia 74.9738
rfoot -5.8709 3.8831
rtoes -12.1343
lfemur -30.6256 0.205889 -25.8522
ltibia 35.384
lfoot -20.3948 0.573687
ltoes -11.7039
302
root 1.07596 16.2827 21.1815 16.3753 -4.37838 2.26877
lowerback -16.058 -0.442941 -2.58129
upperback -4.44281 -0.133003 -0.885996
thorax 4.27232 -0.0820517 0.501713
lowerneck -4.66055 -0.761185 -1.04415
upperneck 11.3878 -1.19126 2.20804
head 4.63286 -0.522755 0.870268
rclavicle 1.25731e-014 -3.57812e-015
rhumerus -44.583 -27.165 -69.4261
rradius 15.834
rwrist 13.5529
rhand -12.6194 -32.0629
rfingers 7.12502
rthumb 13.46 -61.6079
lclavicle 1.25731e-014 -3.57812e-015
lhumerus -38.0385 26.1496 69.6156
lradius 15.9965
lwrist -30.5904
lhand -17.4329 -17.4787
lfingers 7.12502
lthumb 8.81765 12.3171
rfemur -42.6837 -5.75167 19.9203
rtibia 73.6432
rfoot -7.05148 3.4623
rtoes -11.2044
lfemur -29.6414 0.320315 -25.6471
ltibia 35.2116
lfoot -21.0948 -0.245402
ltoes -8.77745
303
root 1.07589 16.2783 21.3925 16.2684 -4.16064 2.34723
lowerback -15.9182 -0.499898 -2.59558
upperback -4.52321 -0.215813 -0.817092
thorax 4.1148 -0.120586 0.567325
lowerneck -4.49582 -0.774816 -1.06657
upperneck 11.5791 -1.21049 2.19248
head 4.66995 -0.534304 0.86896
rclavicle -8.95502e-016 1.80894e-014
rhumerus -47.9016 -31.6566 -63.5805
rradius 14.1821
rwrist 20.3586
rhand -12.1939 -32.2588
rfingers 7.12502
rthumb 13.8701 -61.7763
lclavicle -8.95502e-016 1.80894e-014
lhumerus -36.1612 22.0537 73.1789
lradius 17.8425
lwrist -25.5894
lhand -17.6833 -17.0296
lfingers 7.12502
lthumb 8.576 12.7762
rfemur -43.5926 -5.83413 20.0668
rtibia 72.0861
rfoot -8.12656 3.00144
rtoes -9.8456
lfemur -28.7183 0.543769 -25.7855
ltibia 35.1623
lfoot -21.7698 -1.26198
ltoes -4.74564
304
root 1.07317 16.2732 21.6022 16.2304 -3.92086 2.24892
lowerback -15.8664 -0.539728 -2.45857
upperback -4.57771 -0.299101 -0.687663
thorax 4.03205 -0.159725 0.610725
lowerneck -4.46201 -0.782555 -1.15278
upperneck 11.828 -1.2172 2.18446
head 4.75571 -0.54122 0.882707
rclavicle -6.79119e-015 -1.98785e-015
rhumerus -52.2044 -36.0147 -56.567
rradius 12.9054
rwrist 27.5216
rhand -11.9991 -32.2989
rfingers 7.12502
rthumb 14.0579 -61.8035
lclavicle -6.79119e-015 -1.98785e-015
lhumerus -34.6585 18.5297 75.9694
lradius 19.8786
lwrist -21.3671
lhand -17.193 -16.0623
lfingers 7.12502
lthumb 9.04914 13.7236
rfemur -44.3963 -5.87725 20.444
rtibia 70.2537
rfoot -9.31014 2.43149
rtoes -8.3526
lfemur -27.9822 1.06869 -25.7843
ltibia 35.2397
lfoot -22.4862 -2.31871
ltoes -1.94035
305
root 1.06826 16.2692 21.8076 16.2923 -3.67791 2.0653
lowerback -15.9105 -0.591751 -2.22802
upperback -4.62977 -0.409568 -0.564562
thorax 4.00358 -0.212766 0.588872
lowerneck -4.37244 -0.755193 -1.09249
upperneck 11.992 -1.17954 2.10188
head 4.79553 -0.524247 0.84659
rclavicle 2.28175e-015 -9.49197e-015
rhumerus -57.7903 -40.2894 -47.9452
rradius 11.8008
rwrist 35.5055
rhand -11.9086 -32.5469
rfingers 7.12502
rthumb 14.1451 -62.0454
lclavicle 2.28175e-015 -9.49197e-015
lhumerus -33.2185 15.5081 78.0433
lradius 21.5746
lwrist -18.2388
lhand -17.384 -15.5809
lfingers 7.12502
lthumb 8.86479 14.2129
rfemur -45.292 -5.8153 20.9216
rtibia 68.2129
rfoot -10.3331 1.7599
rtoes -7.66507
lfemur -27.3375 1.74299 -25.7162
ltibia 35.3406
lfoot -23.3593 -2.90053
ltoes -2.52493
306
root 1.06144 16.2454 22.0045 16.4184 -3.39936 1.7279
lowerback -15.9853 -0.607878 -1.86303
upperback -4.68621 -0.494931 -0.406984
thorax 3.98529 -0.253179 0.531745
lowerneck -3.99705 -0.721905 -1.01568
upperneck 11.8676 -1.13309 2.03296
head 4.67043 -0.503901 0.811121
rclavicle -6.40751e-015 8.33653e-015
rhumerus -64.7316 -43.8754 -37.9342
rradius 11.0187
rwrist 43.5499
rhand -11.9402 -32.9926
rfingers 7.12502
rthumb 14.1146 -62.4932
lclavicle -6.40751e-015 8.33653e-015
lhumerus -31.9412 12.8207 79.7223
lradius 23.2296
lwrist -15.8151
lhand -17.8797 -15.4636
lfingers 7.12502
lthumb 8.38639 14.3499
rfemur -46.2788 -5.60358 21.5659
rtibia 66.025
rfoot -11.0113 0.912733
rtoes -8.77965
lfemur -26.6613 2.34541 -25.3922
ltibia 35.3926
lfoot -24.3238 -3.27339
ltoes -3.46222
